<svg xmlns="http://www.w3.org/2000/svg" width="34.203" height="23.947" viewBox="0 0 34.203 23.947"><g transform="translate(-514.445 -606)"><rect width="25" height="18" transform="translate(519 609)" fill="#fff"></rect><path d="M33.5-2.335A4.285,4.285,0,0,0,30.484-5.35C27.808-6.082,17.1-6.082,17.1-6.082s-10.706,0-13.382.7A4.372,4.372,0,0,0,.705-2.335,45.15,45.15,0,0,0,0,5.892a44.984,44.984,0,0,0,.7,8.227A4.286,4.286,0,0,0,3.72,17.133c2.7.733,13.382.733,13.382.733s10.706,0,13.382-.7A4.285,4.285,0,0,0,33.5,14.146a45.165,45.165,0,0,0,.7-8.227s.028-5.578-.7-8.255ZM13.693,11.019V.764l8.9,5.127Zm0,0" transform="translate(514.444 612.082)" fill="red"></path></g></svg>