<svg xmlns="http://www.w3.org/2000/svg" width="15" height="15" viewBox="0 0 15 15"><defs><style>.a{fill:#fff;}</style></defs><g transform="translate(-1806 -487)"><path class="a" d="M5,7H2A2,2,0,0,1,0,5V2A2,2,0,0,1,2,0H5A2,2,0,0,1,7,2V5A2,2,0,0,1,5,7ZM2,1A1,1,0,0,0,1,2V5A1,1,0,0,0,2,6H5A1,1,0,0,0,6,5V2A1,1,0,0,0,5,1Z" transform="translate(1806 487)"/><path class="a" d="M5,7H2A2,2,0,0,1,0,5V2A2,2,0,0,1,2,0H5A2,2,0,0,1,7,2V5A2,2,0,0,1,5,7ZM2,1A1,1,0,0,0,1,2V5A1,1,0,0,0,2,6H5A1,1,0,0,0,6,5V2A1,1,0,0,0,5,1Z" transform="translate(1806 495)"/><path class="a" d="M5,7H2A2,2,0,0,1,0,5V2A2,2,0,0,1,2,0H5A2,2,0,0,1,7,2V5A2,2,0,0,1,5,7ZM2,1A1,1,0,0,0,1,2V5A1,1,0,0,0,2,6H5A1,1,0,0,0,6,5V2A1,1,0,0,0,5,1Z" transform="translate(1814 487)"/><path class="a" d="M5,7H2A2,2,0,0,1,0,5V2A2,2,0,0,1,2,0H5A2,2,0,0,1,7,2V5A2,2,0,0,1,5,7ZM2,1A1,1,0,0,0,1,2V5A1,1,0,0,0,2,6H5A1,1,0,0,0,6,5V2A1,1,0,0,0,5,1Z" transform="translate(1814 495)"/></g></svg>