<svg xmlns="http://www.w3.org/2000/svg" width="19" height="19" viewBox="0 0 19 19">
  <g id="Group_6" data-name="Group 6" transform="translate(-126 -10)">
    <g id="Rectangle_21" data-name="Rectangle 21" transform="translate(126 10)" fill="#0062ff" stroke="#fff" stroke-width="1">
      <rect width="19" height="19" rx="9.5" stroke="none"/>
      <rect x="0.5" y="0.5" width="18" height="18" rx="9" fill="none"/>
    </g>
    <path id="Path_2" data-name="Path 2" d="M2.88-3.71a4.985,4.985,0,0,1,.282-1.851A3.8,3.8,0,0,1,4.2-6.919a5.286,5.286,0,0,0,1-1.087,1.7,1.7,0,0,0,.249-.884q0-1.4-1.295-1.4a1.313,1.313,0,0,0-.984.378,1.482,1.482,0,0,0-.386,1.042H.374A3.2,3.2,0,0,1,1.4-11.355a3.994,3.994,0,0,1,2.752-.9,4.011,4.011,0,0,1,2.731.851A3.025,3.025,0,0,1,7.853-9a2.923,2.923,0,0,1-.315,1.332,5.489,5.489,0,0,1-1.1,1.39l-.672.639a2.277,2.277,0,0,0-.722,1.419l-.033.506ZM2.64-1.162a1.214,1.214,0,0,1,.378-.917,1.342,1.342,0,0,1,.967-.361,1.342,1.342,0,0,1,.967.361,1.214,1.214,0,0,1,.378.917,1.2,1.2,0,0,1-.369.9A1.344,1.344,0,0,1,3.984.1a1.344,1.344,0,0,1-.975-.357A1.2,1.2,0,0,1,2.64-1.162Z" transform="translate(131 26)" fill="#fff"/>
  </g>
</svg>
