<svg height="189" preserveAspectRatio="xMidYMid" viewBox="0 0 256 189" width="256" xmlns="http://www.w3.org/2000/svg" xmlns:xlink="http://www.w3.org/1999/xlink"><defs><path id="a" d="m5.29550498 85.9528279c-3.06067331 5.3061205-3.06067331 11.8422313 0 17.1483511l47.85520042 82.952829h59.8547556l-82.7382943-143.4082772z"/><filter id="b" height="105.3%" width="106.8%" x="-3.3%" y="-2.8%"><feMorphology in="SourceAlpha" operator="dilate" radius="0.2" result="shadowSpreadOuter1"/><feOffset dx="0" dy="0" in="shadowSpreadOuter1" result="shadowOffsetOuter1"/><feGaussianBlur in="shadowOffsetOuter1" result="shadowBlurOuter1" stdDeviation="1"/><feColorMatrix in="shadowBlurOuter1" type="matrix" values="0 0 0 0 0   0 0 0 0 0   0 0 0 0 0  0 0 0 0.3 0"/></filter><radialGradient id="c" cx=".748591%" cy="1.900574%" gradientTransform="matrix(-1 0 0 -.731512 .014972 .032909)" r="59.868563%"><stop offset="0" stop-color="#3e2723" stop-opacity=".2"/><stop offset="1" stop-color="#3e2723" stop-opacity=".02"/></radialGradient><path id="d" d="m252.409119 103.115482c3.060673-5.3061206 3.060673-11.8422313 0-17.1483518l-47.855201-82.95282799h-59.854756l82.738295 143.42257879s24.971662-43.321399 24.971662-43.321399z"/><filter id="e" height="105.3%" width="106.8%" x="-3.5%" y="-2.5%"><feMorphology in="SourceAlpha" operator="dilate" radius="0.2" result="shadowSpreadOuter1"/><feOffset dx="0" dy="0" in="shadowSpreadOuter1" result="shadowOffsetOuter1"/><feGaussianBlur in="shadowOffsetOuter1" result="shadowBlurOuter1" stdDeviation="1"/><feColorMatrix in="shadowBlurOuter1" type="matrix" values="0 0 0 0 0   0 0 0 0 0   0 0 0 0 0  0 0 0 0.3 0"/></filter><radialGradient id="f" cx="99.010496%" cy="97.909114%" gradientTransform="matrix(1 0 0 .731512 0 .262874)" r="59.868563%"><stop offset="0" stop-color="#bf360c" stop-opacity=".2"/><stop offset="1" stop-color="#bf360c" stop-opacity=".02"/></radialGradient></defs><path d="m53.1364032 3-22.8692365 39.6457308 29.934529 51.8884242 52.8037653-91.534155z" fill="#db4437"/><use filter="url(#b)" xlink:href="#a"/><use fill="#4285f4" xlink:href="#a"/><path d="m5.29550498 101.685261c-1.40161675-2.4456784-2.13102954-5.1344942-2.24544724-7.8662166-.1287199 3.2036954.60069289 6.4216926 2.24544724 9.2964376l47.85520042 82.952828h59.8547556l-.829527-1.430221h-59.0395308s-47.84089822-82.952828-47.84089822-82.952828z" fill="#1a237e" opacity=".2"/><path d="m30.6819308 43.3751436 22.4544724-38.94492243h59.0395308l.829527-1.43022117h-59.8690578l-22.8692365 39.6457308z" fill="#fff" opacity=".2"/><path d="m112.175934 3-52.3747002 90.8047422.4004619.7294128 52.8037653-91.534155z" fill="#3e2723" opacity=".2"/><path d="m5.29550498 87.3830491 24.98596382-43.307097 81.8944652 141.9923579h.829527l-82.7382943-143.4225792-24.97166172 43.3070971c-1.65905656 2.8747446-2.38846936 6.0927422-2.24544724 9.2964377.10011548-2.7174203.82952828-5.4205383 2.24544724-7.8662165z" fill="#fff" opacity=".2"/><path d="m30.3100733 42.7029397 29.8916224 51.8312153 8.0235408-13.9017498z" fill="url(#c)"/><path d="m204.56822 186.06831 22.869237-39.645731-29.934529-51.888424-52.803766 91.534155z" fill="#ffc107"/><use filter="url(#e)" xlink:href="#d"/><use fill="#0f9d58" xlink:href="#d"/><path d="m252.409119 87.3830491c1.401616 2.4456782 2.131029 5.134494 2.245447 7.8662165.12872-3.2036955-.600693-6.4216931-2.245447-9.2964377l-47.855201-82.9528279h-59.854756l.829528 1.43022117h59.03953z" fill="#fff" opacity=".2"/><path d="m145.52869 186.06831 52.389002-90.8047423-.414764-.7294127-52.803766 91.534155z" fill="#fff" opacity=".2"/><path d="m252.409119 101.685261-24.985964 43.307097-81.894465-141.992358h-.829528l82.738295 143.422579 24.971662-43.307097c1.659056-2.874745 2.388469-6.0927422 2.245447-9.2964376-.100116 2.7174202-.829528 5.4205382-2.245447 7.8662166z" fill="#263238" opacity=".2"/><path d="m227.39455 146.36537-29.891622-51.831215-8.023541 13.90175z" fill="url(#f)"/></svg>